<svg xmlns="http://www.w3.org/2000/svg" xmlns:xlink="http://www.w3.org/1999/xlink" width="800" zoomAndPan="magnify" viewBox="0 0 600 149.999998" height="200" preserveAspectRatio="xMidYMid meet" version="1.0"><defs><g/><clipPath id="881d9de085"><rect x="0" width="214" y="0" height="150"/></clipPath></defs><g transform="matrix(1, 0, 0, 1, 193, -0.000000000000007527)"><g clip-path="url(#881d9de085)"><g fill="#eeede9" fill-opacity="1"><g transform="translate(3.970998, 110.994613)"><g><path d="M 7.046875 -71.640625 L 28.171875 -71.640625 L 28.171875 -61.203125 L 29.25 -61.203125 C 30.78125 -64.546875 33.285156 -67.367188 36.765625 -69.671875 C 40.242188 -71.972656 44.460938 -73.125 49.421875 -73.125 C 58.816406 -73.125 65.316406 -70.164062 68.921875 -64.25 C 72.535156 -58.34375 74.34375 -51.734375 74.34375 -44.421875 L 74.34375 0 L 53.21875 0 L 53.21875 -40.765625 C 53.21875 -45.453125 52.175781 -49.148438 50.09375 -51.859375 C 48.019531 -54.566406 44.953125 -55.921875 40.890625 -55.921875 C 36.554688 -55.921875 33.351562 -54.5 31.28125 -51.65625 C 29.207031 -48.8125 28.171875 -45.179688 28.171875 -40.765625 L 28.171875 0 L 7.046875 0 Z M 7.046875 -71.640625 "/></g></g></g><g fill="#eeede9" fill-opacity="1"><g transform="translate(74.11805, 110.994613)"><g><path d="M 6.90625 -16.65625 L 39.140625 -55.109375 L 39.140625 -55.390625 L 8.125 -55.390625 L 8.125 -71.90625 L 61.484375 -71.90625 L 61.484375 -55.390625 L 29.25 -16.921875 L 29.25 -16.515625 L 61.484375 -16.515625 L 61.484375 0 L 6.90625 0 Z M 6.90625 -16.65625 "/></g></g></g><g fill="#eeede9" fill-opacity="1"><g transform="translate(130.316912, 110.994613)"><g><path d="M 73 0 L 51.734375 0 L 51.734375 -10.703125 L 50.78125 -10.703125 C 49.25 -7.359375 46.8125 -4.507812 43.46875 -2.15625 C 40.125 0.1875 36.0625 1.359375 31.28125 1.359375 C 21.976562 1.359375 15.613281 -1.617188 12.1875 -7.578125 C 8.757812 -13.535156 7.046875 -20.171875 7.046875 -27.484375 L 7.046875 -71.640625 L 28.03125 -71.640625 L 28.03125 -31.015625 C 28.03125 -26.492188 28.976562 -22.859375 30.875 -20.109375 C 32.769531 -17.359375 35.703125 -15.984375 39.671875 -15.984375 C 43.828125 -15.984375 46.875 -17.40625 48.8125 -20.25 C 50.757812 -23.09375 51.734375 -26.679688 51.734375 -31.015625 L 51.734375 -71.640625 L 73 -71.640625 Z M 73 0 "/></g></g></g><g fill="#90b494" fill-opacity="1"><g transform="translate(1.332663, 110.994613)"><g><path d="M 9.484375 -71.640625 L 30.46875 -71.640625 L 30.46875 0 L 9.484375 0 Z M 19.90625 -83.5625 C 16.65625 -83.5625 13.945312 -84.664062 11.78125 -86.875 C 9.613281 -89.082031 8.53125 -91.769531 8.53125 -94.9375 C 8.53125 -98.1875 9.613281 -100.914062 11.78125 -103.125 C 13.945312 -105.332031 16.65625 -106.4375 19.90625 -106.4375 C 23.15625 -106.4375 25.882812 -105.332031 28.09375 -103.125 C 30.300781 -100.914062 31.40625 -98.1875 31.40625 -94.9375 C 31.40625 -91.769531 30.300781 -89.082031 28.09375 -86.875 C 25.882812 -84.664062 23.15625 -83.5625 19.90625 -83.5625 Z M 19.90625 -83.5625 "/></g></g></g><g fill="#90b494" fill-opacity="1"><g transform="translate(212.664677, 39.003875)"><g><path d="M -9.484375 71.640625 L -30.46875 71.640625 L -30.46875 0 L -9.484375 0 Z M -19.90625 83.5625 C -16.65625 83.5625 -13.945312 84.664062 -11.78125 86.875 C -9.613281 89.082031 -8.53125 91.769531 -8.53125 94.9375 C -8.53125 98.1875 -9.613281 100.914062 -11.78125 103.125 C -13.945312 105.332031 -16.65625 106.4375 -19.90625 106.4375 C -23.15625 106.4375 -25.882812 105.332031 -28.09375 103.125 C -30.300781 100.914062 -31.40625 98.1875 -31.40625 94.9375 C -31.40625 91.769531 -30.300781 89.082031 -28.09375 86.875 C -25.882812 84.664062 -23.15625 83.5625 -19.90625 83.5625 Z M -19.90625 83.5625 "/></g></g></g></g></g></svg>