<svg xmlns="http://www.w3.org/2000/svg" xmlns:xlink="http://www.w3.org/1999/xlink" width="2000" zoomAndPan="magnify" viewBox="0 0 1500 1499.999933" height="2000" preserveAspectRatio="xMidYMid meet" version="1.0"><defs><g/><clipPath id="19cd07dd3f"><rect x="0" width="472" y="0" height="1500"/></clipPath></defs><g transform="matrix(1, 0, 0, 1, 514, 0.000000000000112861)"><g clip-path="url(#19cd07dd3f)"><g fill="#90b494" fill-opacity="1"><g transform="translate(1.831444, 999.072395)"><g><path d="M 65.75 -496.921875 L 211.359375 -496.921875 L 211.359375 0 L 65.75 0 Z M 138.078125 -579.578125 C 115.535156 -579.578125 96.75 -587.25 81.71875 -602.59375 C 66.6875 -617.9375 59.171875 -636.566406 59.171875 -658.484375 C 59.171875 -681.035156 66.6875 -699.984375 81.71875 -715.328125 C 96.75 -730.671875 115.535156 -738.34375 138.078125 -738.34375 C 160.628906 -738.34375 179.570312 -730.671875 194.90625 -715.328125 C 210.25 -699.984375 217.921875 -681.035156 217.921875 -658.484375 C 217.921875 -636.566406 210.25 -617.9375 194.90625 -602.59375 C 179.570312 -587.25 160.628906 -579.578125 138.078125 -579.578125 Z M 138.078125 -579.578125 "/></g></g></g><g fill="#90b494" fill-opacity="1"><g transform="translate(469.892568, 500.917025)"><g><path d="M -65.75 496.921875 L -211.359375 496.921875 L -211.359375 0 L -65.75 0 Z M -138.078125 579.578125 C -115.535156 579.578125 -96.75 587.25 -81.71875 602.59375 C -66.6875 617.9375 -59.171875 636.566406 -59.171875 658.484375 C -59.171875 681.035156 -66.6875 699.984375 -81.71875 715.328125 C -96.75 730.671875 -115.535156 738.34375 -138.078125 738.34375 C -160.628906 738.34375 -179.570312 730.671875 -194.90625 715.328125 C -210.25 699.984375 -217.921875 681.035156 -217.921875 658.484375 C -217.921875 636.566406 -210.25 617.9375 -194.90625 602.59375 C -179.570312 587.25 -160.628906 579.578125 -138.078125 579.578125 Z M -138.078125 579.578125 "/></g></g></g></g></g></svg>